<?xml version="1.0" encoding="UTF-8" standalone="no"?>
<!DOCTYPE svg PUBLIC "-//W3C//DTD SVG 1.1//EN"
 "http://www.w3.org/Graphics/SVG/1.1/DTD/svg11.dtd">
<!-- Generated by graphviz version 2.47.0 (20210316.0004)
 -->
<!-- Title: dependencies Pages: 1 -->
<svg width="2411pt" height="290pt"
 viewBox="0.00 0.00 2411.00 290.00" xmlns="http://www.w3.org/2000/svg" xmlns:xlink="http://www.w3.org/1999/xlink">
<g id="graph0" class="graph" transform="scale(1 1) rotate(0) translate(4 286)">
<title>dependencies</title>
<polygon fill="white" stroke="transparent" points="-4,4 -4,-286 2407,-286 2407,4 -4,4"/>
<text text-anchor="start" x="1180.51" y="-42.4" font-family="Times-12" font-weight="bold" font-size="14.00">Legend</text>
<polygon fill="#ffffb3" stroke="transparent" points="967.5,-10 967.5,-30 987.5,-30 987.5,-10 967.5,-10"/>
<text text-anchor="start" x="991.13" y="-15.4" font-family="Times-12" font-size="14.00"> &#160;Declarations</text>
<polygon fill="#8dd3c7" stroke="transparent" points="1080.5,-10 1080.5,-30 1100.5,-30 1100.5,-10 1080.5,-10"/>
<text text-anchor="start" x="1104.23" y="-15.4" font-family="Times-12" font-size="14.00"> &#160;Module</text>
<polygon fill="#80b1d3" stroke="transparent" points="1166.5,-10 1166.5,-30 1186.5,-30 1186.5,-10 1166.5,-10"/>
<text text-anchor="start" x="1190.28" y="-15.4" font-family="Times-12" font-size="14.00"> &#160;Bootstrap</text>
<polygon fill="#fdb462" stroke="transparent" points="1263.5,-10 1263.5,-30 1283.5,-30 1283.5,-10 1263.5,-10"/>
<text text-anchor="start" x="1287.17" y="-15.4" font-family="Times-12" font-size="14.00"> &#160;Providers</text>
<polygon fill="#fb8072" stroke="transparent" points="1359.5,-10 1359.5,-30 1379.5,-30 1379.5,-10 1359.5,-10"/>
<text text-anchor="start" x="1383.23" y="-15.4" font-family="Times-12" font-size="14.00"> &#160;Exports</text>
<g id="clust1" class="cluster">
<title>cluster_AppModule</title>
<polygon fill="none" stroke="black" stroke-dasharray="1,5" points="8,-70 8,-274 566,-274 566,-70 8,-70"/>
</g>
<g id="clust2" class="cluster">
<title>cluster_AppModule_declarations</title>
<polygon fill="none" stroke="black" points="16,-78 16,-130 282,-130 282,-78 16,-78"/>
</g>
<g id="clust5" class="cluster">
<title>cluster_AppModule_imports</title>
<polygon fill="none" stroke="black" points="290,-78 290,-130 558,-130 558,-78 290,-78"/>
</g>
<g id="clust7" class="cluster">
<title>cluster_AppModule_bootstrap</title>
<polygon fill="none" stroke="black" points="229,-214 229,-266 353,-266 353,-214 229,-214"/>
</g>
<g id="clust15" class="cluster">
<title>cluster_ProjecteModule</title>
<polygon fill="none" stroke="black" stroke-dasharray="1,5" points="574,-138 574,-206 2395,-206 2395,-138 574,-138"/>
</g>
<g id="clust16" class="cluster">
<title>cluster_ProjecteModule_declarations</title>
<polygon fill="none" stroke="black" points="1499,-146 1499,-198 2387,-198 2387,-146 1499,-146"/>
</g>
<g id="clust24" class="cluster">
<title>cluster_ProjecteModule_exports</title>
<polygon fill="none" stroke="black" points="582,-146 582,-198 1491,-198 1491,-146 582,-146"/>
</g>
<!-- AppComponent -->
<g id="node1" class="node">
<title>AppComponent</title>
<polygon fill="#ffffb3" stroke="black" points="273.94,-122 168.06,-122 168.06,-86 273.94,-86 273.94,-122"/>
<text text-anchor="middle" x="221" y="-99.8" font-family="Times,serif" font-size="14.00">AppComponent</text>
</g>
<!-- AppModule -->
<g id="node3" class="node">
<title>AppModule</title>
<polygon fill="#8dd3c7" stroke="black" points="332.66,-190 329.66,-194 308.66,-194 305.66,-190 249.34,-190 249.34,-154 332.66,-154 332.66,-190"/>
<text text-anchor="middle" x="291" y="-167.8" font-family="Times,serif" font-size="14.00">AppModule</text>
</g>
<!-- AppComponent&#45;&gt;AppModule -->
<g id="edge1" class="edge">
<title>AppComponent&#45;&gt;AppModule</title>
<path fill="none" stroke="black" d="M261.45,-122.22C261.45,-122.22 261.45,-143.73 261.45,-143.73"/>
<polygon fill="black" stroke="black" points="257.95,-143.73 261.45,-153.73 264.95,-143.73 257.95,-143.73"/>
</g>
<!-- DirectivesDirective -->
<g id="node2" class="node">
<title>DirectivesDirective</title>
<polygon fill="#ffffb3" stroke="black" points="149.61,-122 24.39,-122 24.39,-86 149.61,-86 149.61,-122"/>
<text text-anchor="middle" x="87" y="-99.8" font-family="Times,serif" font-size="14.00">DirectivesDirective</text>
</g>
<!-- DirectivesDirective&#45;&gt;AppModule -->
<g id="edge2" class="edge">
<title>DirectivesDirective&#45;&gt;AppModule</title>
<path fill="none" stroke="black" d="M87,-122.22C87,-142.37 87,-172 87,-172 87,-172 239.23,-172 239.23,-172"/>
<polygon fill="black" stroke="black" points="239.23,-175.5 249.23,-172 239.23,-168.5 239.23,-175.5"/>
</g>
<!-- AppComponent  -->
<g id="node6" class="node">
<title>AppComponent </title>
<polygon fill="#80b1d3" stroke="black" points="345.44,-258 236.56,-258 236.56,-222 345.44,-222 345.44,-258"/>
<text text-anchor="middle" x="291" y="-235.8" font-family="Times,serif" font-size="14.00">AppComponent </text>
</g>
<!-- AppModule&#45;&gt;AppComponent  -->
<g id="edge5" class="edge">
<title>AppModule&#45;&gt;AppComponent </title>
<path fill="none" stroke="black" stroke-dasharray="1,5" d="M291,-190.22C291,-190.22 291,-211.73 291,-211.73"/>
<polygon fill="black" stroke="black" points="287.5,-211.73 291,-221.73 294.5,-211.73 287.5,-211.73"/>
</g>
<!-- AppRoutingModule -->
<g id="node4" class="node">
<title>AppRoutingModule</title>
<polygon fill="#8dd3c7" stroke="black" points="426.27,-122 423.27,-126 402.27,-126 399.27,-122 297.73,-122 297.73,-86 426.27,-86 426.27,-122"/>
<text text-anchor="middle" x="362" y="-99.8" font-family="Times,serif" font-size="14.00">AppRoutingModule</text>
</g>
<!-- AppRoutingModule&#45;&gt;AppModule -->
<g id="edge3" class="edge">
<title>AppRoutingModule&#45;&gt;AppModule</title>
<path fill="none" stroke="black" d="M315.22,-122.22C315.22,-122.22 315.22,-143.73 315.22,-143.73"/>
<polygon fill="black" stroke="black" points="311.72,-143.73 315.22,-153.73 318.72,-143.73 311.72,-143.73"/>
</g>
<!-- ProjecteModule -->
<g id="node5" class="node">
<title>ProjecteModule</title>
<polygon fill="#8dd3c7" stroke="black" points="549.92,-122 546.92,-126 525.92,-126 522.92,-122 444.08,-122 444.08,-86 549.92,-86 549.92,-122"/>
<text text-anchor="middle" x="497" y="-99.8" font-family="Times,serif" font-size="14.00">ProjecteModule</text>
</g>
<!-- ProjecteModule&#45;&gt;AppModule -->
<g id="edge4" class="edge">
<title>ProjecteModule&#45;&gt;AppModule</title>
<path fill="none" stroke="black" d="M479.43,-122.27C479.43,-140.56 479.43,-166 479.43,-166 479.43,-166 342.82,-166 342.82,-166"/>
<polygon fill="black" stroke="black" points="342.82,-162.5 332.82,-166 342.82,-169.5 342.82,-162.5"/>
</g>
<!-- AjudaComponent  -->
<g id="node13" class="node">
<title>AjudaComponent </title>
<polygon fill="#fb8072" stroke="black" points="1482.54,-190 1363.46,-190 1363.46,-154 1482.54,-154 1482.54,-190"/>
<text text-anchor="middle" x="1423" y="-167.8" font-family="Times,serif" font-size="14.00">AjudaComponent </text>
</g>
<!-- ProjecteModule&#45;&gt;AjudaComponent  -->
<g id="edge12" class="edge">
<title>ProjecteModule&#45;&gt;AjudaComponent </title>
<path fill="none" stroke="black" stroke-dasharray="5,2" d="M549.77,-107C746.1,-107 1423,-107 1423,-107 1423,-107 1423,-143.89 1423,-143.89"/>
<polygon fill="black" stroke="black" points="1419.5,-143.89 1423,-153.89 1426.5,-143.89 1419.5,-143.89"/>
</g>
<!-- ClassificacioComponent  -->
<g id="node14" class="node">
<title>ClassificacioComponent </title>
<polygon fill="#fb8072" stroke="black" points="1345.64,-190 1188.36,-190 1188.36,-154 1345.64,-154 1345.64,-190"/>
<text text-anchor="middle" x="1267" y="-167.8" font-family="Times,serif" font-size="14.00">ClassificacioComponent </text>
</g>
<!-- ProjecteModule&#45;&gt;ClassificacioComponent  -->
<g id="edge13" class="edge">
<title>ProjecteModule&#45;&gt;ClassificacioComponent </title>
<path fill="none" stroke="black" stroke-dasharray="5,2" d="M549.93,-110C723.89,-110 1267,-110 1267,-110 1267,-110 1267,-143.73 1267,-143.73"/>
<polygon fill="black" stroke="black" points="1263.5,-143.73 1267,-153.73 1270.5,-143.73 1263.5,-143.73"/>
</g>
<!-- JocComponent  -->
<g id="node15" class="node">
<title>JocComponent </title>
<polygon fill="#fb8072" stroke="black" points="1170.99,-190 1067.01,-190 1067.01,-154 1170.99,-154 1170.99,-190"/>
<text text-anchor="middle" x="1119" y="-167.8" font-family="Times,serif" font-size="14.00">JocComponent </text>
</g>
<!-- ProjecteModule&#45;&gt;JocComponent  -->
<g id="edge14" class="edge">
<title>ProjecteModule&#45;&gt;JocComponent </title>
<path fill="none" stroke="black" stroke-dasharray="5,2" d="M549.76,-113C699.95,-113 1119,-113 1119,-113 1119,-113 1119,-143.98 1119,-143.98"/>
<polygon fill="black" stroke="black" points="1115.5,-143.98 1119,-153.98 1122.5,-143.98 1115.5,-143.98"/>
</g>
<!-- LoginComponent  -->
<g id="node16" class="node">
<title>LoginComponent </title>
<polygon fill="#fb8072" stroke="black" points="1049.28,-190 930.72,-190 930.72,-154 1049.28,-154 1049.28,-190"/>
<text text-anchor="middle" x="990" y="-167.8" font-family="Times,serif" font-size="14.00">LoginComponent </text>
</g>
<!-- ProjecteModule&#45;&gt;LoginComponent  -->
<g id="edge15" class="edge">
<title>ProjecteModule&#45;&gt;LoginComponent </title>
<path fill="none" stroke="black" stroke-dasharray="5,2" d="M549.76,-116C676.94,-116 990,-116 990,-116 990,-116 990,-143.97 990,-143.97"/>
<polygon fill="black" stroke="black" points="986.5,-143.97 990,-153.97 993.5,-143.97 986.5,-143.97"/>
</g>
<!-- PaginaPrincipalComponent  -->
<g id="node17" class="node">
<title>PaginaPrincipalComponent </title>
<polygon fill="#fb8072" stroke="black" points="912.98,-190 739.02,-190 739.02,-154 912.98,-154 912.98,-190"/>
<text text-anchor="middle" x="826" y="-167.8" font-family="Times,serif" font-size="14.00">PaginaPrincipalComponent </text>
</g>
<!-- ProjecteModule&#45;&gt;PaginaPrincipalComponent  -->
<g id="edge16" class="edge">
<title>ProjecteModule&#45;&gt;PaginaPrincipalComponent </title>
<path fill="none" stroke="black" stroke-dasharray="5,2" d="M549.86,-119C642.86,-119 826,-119 826,-119 826,-119 826,-143.76 826,-143.76"/>
<polygon fill="black" stroke="black" points="822.5,-143.76 826,-153.76 829.5,-143.76 822.5,-143.76"/>
</g>
<!-- RegistreComponent  -->
<g id="node18" class="node">
<title>RegistreComponent </title>
<polygon fill="#fb8072" stroke="black" points="721.99,-190 590.01,-190 590.01,-154 721.99,-154 721.99,-190"/>
<text text-anchor="middle" x="656" y="-167.8" font-family="Times,serif" font-size="14.00">RegistreComponent </text>
</g>
<!-- ProjecteModule&#45;&gt;RegistreComponent  -->
<g id="edge17" class="edge">
<title>ProjecteModule&#45;&gt;RegistreComponent </title>
<path fill="none" stroke="black" stroke-dasharray="5,2" d="M514.57,-122.29C514.57,-144.21 514.57,-178 514.57,-178 514.57,-178 580.25,-178 580.25,-178"/>
<polygon fill="black" stroke="black" points="580.25,-181.5 590.25,-178 580.25,-174.5 580.25,-181.5"/>
</g>
<!-- AjudaComponent -->
<g id="node7" class="node">
<title>AjudaComponent</title>
<polygon fill="#ffffb3" stroke="black" points="2378.55,-190 2263.45,-190 2263.45,-154 2378.55,-154 2378.55,-190"/>
<text text-anchor="middle" x="2321" y="-167.8" font-family="Times,serif" font-size="14.00">AjudaComponent</text>
</g>
<!-- AjudaComponent&#45;&gt;ProjecteModule -->
<g id="edge6" class="edge">
<title>AjudaComponent&#45;&gt;ProjecteModule</title>
<path fill="none" stroke="black" d="M2321,-153.99C2321,-129.58 2321,-89 2321,-89 2321,-89 560.11,-89 560.11,-89"/>
<polygon fill="black" stroke="black" points="560.11,-85.5 550.11,-89 560.11,-92.5 560.11,-85.5"/>
</g>
<!-- ClassificacioComponent -->
<g id="node8" class="node">
<title>ClassificacioComponent</title>
<polygon fill="#ffffb3" stroke="black" points="2244.64,-190 2091.36,-190 2091.36,-154 2244.64,-154 2244.64,-190"/>
<text text-anchor="middle" x="2168" y="-167.8" font-family="Times,serif" font-size="14.00">ClassificacioComponent</text>
</g>
<!-- ClassificacioComponent&#45;&gt;ProjecteModule -->
<g id="edge7" class="edge">
<title>ClassificacioComponent&#45;&gt;ProjecteModule</title>
<path fill="none" stroke="black" d="M2168,-153.85C2168,-130.24 2168,-92 2168,-92 2168,-92 559.77,-92 559.77,-92"/>
<polygon fill="black" stroke="black" points="559.77,-88.5 549.77,-92 559.77,-95.5 559.77,-88.5"/>
</g>
<!-- JocComponent -->
<g id="node9" class="node">
<title>JocComponent</title>
<polygon fill="#ffffb3" stroke="black" points="2072.99,-190 1973.01,-190 1973.01,-154 2072.99,-154 2072.99,-190"/>
<text text-anchor="middle" x="2023" y="-167.8" font-family="Times,serif" font-size="14.00">JocComponent</text>
</g>
<!-- JocComponent&#45;&gt;ProjecteModule -->
<g id="edge8" class="edge">
<title>JocComponent&#45;&gt;ProjecteModule</title>
<path fill="none" stroke="black" d="M2023,-153.75C2023,-130.98 2023,-95 2023,-95 2023,-95 559.97,-95 559.97,-95"/>
<polygon fill="black" stroke="black" points="559.97,-91.5 549.97,-95 559.97,-98.5 559.97,-91.5"/>
</g>
<!-- LoginComponent -->
<g id="node10" class="node">
<title>LoginComponent</title>
<polygon fill="#ffffb3" stroke="black" points="1955.28,-190 1840.72,-190 1840.72,-154 1955.28,-154 1955.28,-190"/>
<text text-anchor="middle" x="1898" y="-167.8" font-family="Times,serif" font-size="14.00">LoginComponent</text>
</g>
<!-- LoginComponent&#45;&gt;ProjecteModule -->
<g id="edge9" class="edge">
<title>LoginComponent&#45;&gt;ProjecteModule</title>
<path fill="none" stroke="black" d="M1898,-153.71C1898,-131.79 1898,-98 1898,-98 1898,-98 559.79,-98 559.79,-98"/>
<polygon fill="black" stroke="black" points="559.79,-94.5 549.79,-98 559.79,-101.5 559.79,-94.5"/>
</g>
<!-- PaginaPrincipalComponent -->
<g id="node11" class="node">
<title>PaginaPrincipalComponent</title>
<polygon fill="#ffffb3" stroke="black" points="1822.98,-190 1653.02,-190 1653.02,-154 1822.98,-154 1822.98,-190"/>
<text text-anchor="middle" x="1738" y="-167.8" font-family="Times,serif" font-size="14.00">PaginaPrincipalComponent</text>
</g>
<!-- PaginaPrincipalComponent&#45;&gt;ProjecteModule -->
<g id="edge10" class="edge">
<title>PaginaPrincipalComponent&#45;&gt;ProjecteModule</title>
<path fill="none" stroke="black" d="M1738,-153.72C1738,-132.68 1738,-101 1738,-101 1738,-101 559.93,-101 559.93,-101"/>
<polygon fill="black" stroke="black" points="559.93,-97.5 549.93,-101 559.93,-104.5 559.93,-97.5"/>
</g>
<!-- RegistreComponent -->
<g id="node12" class="node">
<title>RegistreComponent</title>
<polygon fill="#ffffb3" stroke="black" points="1634.98,-190 1507.02,-190 1507.02,-154 1634.98,-154 1634.98,-190"/>
<text text-anchor="middle" x="1571" y="-167.8" font-family="Times,serif" font-size="14.00">RegistreComponent</text>
</g>
<!-- RegistreComponent&#45;&gt;ProjecteModule -->
<g id="edge11" class="edge">
<title>RegistreComponent&#45;&gt;ProjecteModule</title>
<path fill="none" stroke="black" d="M1571,-153.78C1571,-133.63 1571,-104 1571,-104 1571,-104 559.89,-104 559.89,-104"/>
<polygon fill="black" stroke="black" points="559.89,-100.5 549.89,-104 559.89,-107.5 559.89,-100.5"/>
</g>
</g>
</svg>
