<?xml version="1.0" encoding="UTF-8" standalone="no"?>
<!DOCTYPE svg PUBLIC "-//W3C//DTD SVG 1.1//EN"
 "http://www.w3.org/Graphics/SVG/1.1/DTD/svg11.dtd">
<!-- Generated by graphviz version 2.47.0 (20210316.0004)
 -->
<!-- Title: dependencies Pages: 1 -->
<svg width="582pt" height="284pt"
 viewBox="0.00 0.00 582.00 284.00" xmlns="http://www.w3.org/2000/svg" xmlns:xlink="http://www.w3.org/1999/xlink">
<g id="graph0" class="graph" transform="scale(1 1) rotate(0) translate(4 280)">
<title>dependencies</title>
<polygon fill="white" stroke="transparent" points="-4,4 -4,-280 578,-280 578,4 -4,4"/>
<text text-anchor="start" x="266.01" y="-42.4" font-family="Times-12" font-weight="bold" font-size="14.00">Legend</text>
<polygon fill="#ffffb3" stroke="transparent" points="53,-10 53,-30 73,-30 73,-10 53,-10"/>
<text text-anchor="start" x="76.63" y="-15.4" font-family="Times-12" font-size="14.00"> &#160;Declarations</text>
<polygon fill="#8dd3c7" stroke="transparent" points="166,-10 166,-30 186,-30 186,-10 166,-10"/>
<text text-anchor="start" x="189.73" y="-15.4" font-family="Times-12" font-size="14.00"> &#160;Module</text>
<polygon fill="#80b1d3" stroke="transparent" points="252,-10 252,-30 272,-30 272,-10 252,-10"/>
<text text-anchor="start" x="275.78" y="-15.4" font-family="Times-12" font-size="14.00"> &#160;Bootstrap</text>
<polygon fill="#fdb462" stroke="transparent" points="349,-10 349,-30 369,-30 369,-10 349,-10"/>
<text text-anchor="start" x="372.67" y="-15.4" font-family="Times-12" font-size="14.00"> &#160;Providers</text>
<polygon fill="#fb8072" stroke="transparent" points="445,-10 445,-30 465,-30 465,-10 445,-10"/>
<text text-anchor="start" x="468.73" y="-15.4" font-family="Times-12" font-size="14.00"> &#160;Exports</text>
<g id="clust1" class="cluster">
<title>cluster_AppModule</title>
<polygon fill="none" stroke="black" stroke-dasharray="1,5" points="8,-70 8,-268 566,-268 566,-70 8,-70"/>
</g>
<g id="clust2" class="cluster">
<title>cluster_AppModule_declarations</title>
<polygon fill="none" stroke="black" points="292,-78 292,-130 558,-130 558,-78 292,-78"/>
</g>
<g id="clust5" class="cluster">
<title>cluster_AppModule_imports</title>
<polygon fill="none" stroke="black" points="16,-78 16,-130 284,-130 284,-78 16,-78"/>
</g>
<g id="clust7" class="cluster">
<title>cluster_AppModule_bootstrap</title>
<polygon fill="none" stroke="black" points="225,-208 225,-260 349,-260 349,-208 225,-208"/>
</g>
<!-- AppComponent -->
<g id="node1" class="node">
<title>AppComponent</title>
<polygon fill="#ffffb3" stroke="black" points="549.94,-122 444.06,-122 444.06,-86 549.94,-86 549.94,-122"/>
<text text-anchor="middle" x="497" y="-99.8" font-family="Times,serif" font-size="14.00">AppComponent</text>
</g>
<!-- AppModule -->
<g id="node3" class="node">
<title>AppModule</title>
<polygon fill="#8dd3c7" stroke="black" points="328.66,-187 325.66,-191 304.66,-191 301.66,-187 245.34,-187 245.34,-151 328.66,-151 328.66,-187"/>
<text text-anchor="middle" x="287" y="-164.8" font-family="Times,serif" font-size="14.00">AppModule</text>
</g>
<!-- AppComponent&#45;&gt;AppModule -->
<g id="edge1" class="edge">
<title>AppComponent&#45;&gt;AppModule</title>
<path fill="none" stroke="black" d="M497,-122.11C497,-141.34 497,-169 497,-169 497,-169 338.74,-169 338.74,-169"/>
<polygon fill="black" stroke="black" points="338.74,-165.5 328.74,-169 338.74,-172.5 338.74,-165.5"/>
</g>
<!-- DirectivesDirective -->
<g id="node2" class="node">
<title>DirectivesDirective</title>
<polygon fill="#ffffb3" stroke="black" points="425.61,-122 300.39,-122 300.39,-86 425.61,-86 425.61,-122"/>
<text text-anchor="middle" x="363" y="-99.8" font-family="Times,serif" font-size="14.00">DirectivesDirective</text>
</g>
<!-- DirectivesDirective&#45;&gt;AppModule -->
<g id="edge2" class="edge">
<title>DirectivesDirective&#45;&gt;AppModule</title>
<path fill="none" stroke="black" d="M314.51,-122.11C314.51,-122.11 314.51,-140.99 314.51,-140.99"/>
<polygon fill="black" stroke="black" points="311.01,-140.99 314.51,-150.99 318.01,-140.99 311.01,-140.99"/>
</g>
<!-- AppComponent  -->
<g id="node6" class="node">
<title>AppComponent </title>
<polygon fill="#80b1d3" stroke="black" points="341.44,-252 232.56,-252 232.56,-216 341.44,-216 341.44,-252"/>
<text text-anchor="middle" x="287" y="-229.8" font-family="Times,serif" font-size="14.00">AppComponent </text>
</g>
<!-- AppModule&#45;&gt;AppComponent  -->
<g id="edge5" class="edge">
<title>AppModule&#45;&gt;AppComponent </title>
<path fill="none" stroke="black" stroke-dasharray="1,5" d="M287,-187.11C287,-187.11 287,-205.99 287,-205.99"/>
<polygon fill="black" stroke="black" points="283.5,-205.99 287,-215.99 290.5,-205.99 283.5,-205.99"/>
</g>
<!-- AppRoutingModule -->
<g id="node4" class="node">
<title>AppRoutingModule</title>
<polygon fill="#8dd3c7" stroke="black" points="276.27,-122 273.27,-126 252.27,-126 249.27,-122 147.73,-122 147.73,-86 276.27,-86 276.27,-122"/>
<text text-anchor="middle" x="212" y="-99.8" font-family="Times,serif" font-size="14.00">AppRoutingModule</text>
</g>
<!-- AppRoutingModule&#45;&gt;AppModule -->
<g id="edge3" class="edge">
<title>AppRoutingModule&#45;&gt;AppModule</title>
<path fill="none" stroke="black" d="M260.78,-122.11C260.78,-122.11 260.78,-140.99 260.78,-140.99"/>
<polygon fill="black" stroke="black" points="257.28,-140.99 260.78,-150.99 264.28,-140.99 257.28,-140.99"/>
</g>
<!-- ProjecteModule -->
<g id="node5" class="node">
<title>ProjecteModule</title>
<polygon fill="#8dd3c7" stroke="black" points="129.92,-122 126.92,-126 105.92,-126 102.92,-122 24.08,-122 24.08,-86 129.92,-86 129.92,-122"/>
<text text-anchor="middle" x="77" y="-99.8" font-family="Times,serif" font-size="14.00">ProjecteModule</text>
</g>
<!-- ProjecteModule&#45;&gt;AppModule -->
<g id="edge4" class="edge">
<title>ProjecteModule&#45;&gt;AppModule</title>
<path fill="none" stroke="black" d="M77,-122.11C77,-141.34 77,-169 77,-169 77,-169 235.26,-169 235.26,-169"/>
<polygon fill="black" stroke="black" points="235.26,-172.5 245.26,-169 235.26,-165.5 235.26,-172.5"/>
</g>
</g>
</svg>
