<?xml version="1.0" encoding="UTF-8" standalone="no"?>
<!DOCTYPE svg PUBLIC "-//W3C//DTD SVG 1.1//EN"
 "http://www.w3.org/Graphics/SVG/1.1/DTD/svg11.dtd">
<!-- Generated by graphviz version 2.47.0 (20210316.0004)
 -->
<!-- Title: dependencies Pages: 1 -->
<svg width="949pt" height="284pt"
 viewBox="0.00 0.00 949.00 284.00" xmlns="http://www.w3.org/2000/svg" xmlns:xlink="http://www.w3.org/1999/xlink">
<g id="graph0" class="graph" transform="scale(1 1) rotate(0) translate(4 280)">
<title>dependencies</title>
<polygon fill="white" stroke="transparent" points="-4,4 -4,-280 945,-280 945,4 -4,4"/>
<text text-anchor="start" x="449.51" y="-42.4" font-family="Times-12" font-weight="bold" font-size="14.00">Legend</text>
<polygon fill="#ffffb3" stroke="transparent" points="236.5,-10 236.5,-30 256.5,-30 256.5,-10 236.5,-10"/>
<text text-anchor="start" x="260.13" y="-15.4" font-family="Times-12" font-size="14.00"> &#160;Declarations</text>
<polygon fill="#8dd3c7" stroke="transparent" points="349.5,-10 349.5,-30 369.5,-30 369.5,-10 349.5,-10"/>
<text text-anchor="start" x="373.23" y="-15.4" font-family="Times-12" font-size="14.00"> &#160;Module</text>
<polygon fill="#80b1d3" stroke="transparent" points="435.5,-10 435.5,-30 455.5,-30 455.5,-10 435.5,-10"/>
<text text-anchor="start" x="459.28" y="-15.4" font-family="Times-12" font-size="14.00"> &#160;Bootstrap</text>
<polygon fill="#fdb462" stroke="transparent" points="532.5,-10 532.5,-30 552.5,-30 552.5,-10 532.5,-10"/>
<text text-anchor="start" x="556.17" y="-15.4" font-family="Times-12" font-size="14.00"> &#160;Providers</text>
<polygon fill="#fb8072" stroke="transparent" points="628.5,-10 628.5,-30 648.5,-30 648.5,-10 628.5,-10"/>
<text text-anchor="start" x="652.23" y="-15.4" font-family="Times-12" font-size="14.00"> &#160;Exports</text>
<g id="clust1" class="cluster">
<title>cluster_ProjecteModule</title>
<polygon fill="none" stroke="black" stroke-dasharray="1,5" points="8,-70 8,-268 933,-268 933,-70 8,-70"/>
</g>
<g id="clust2" class="cluster">
<title>cluster_ProjecteModule_declarations</title>
<polygon fill="none" stroke="black" points="29,-78 29,-130 917,-130 917,-78 29,-78"/>
</g>
<g id="clust10" class="cluster">
<title>cluster_ProjecteModule_exports</title>
<polygon fill="none" stroke="black" points="16,-208 16,-260 925,-260 925,-208 16,-208"/>
</g>
<!-- AjudaComponent -->
<g id="node1" class="node">
<title>AjudaComponent</title>
<polygon fill="#ffffb3" stroke="black" points="908.55,-122 793.45,-122 793.45,-86 908.55,-86 908.55,-122"/>
<text text-anchor="middle" x="851" y="-99.8" font-family="Times,serif" font-size="14.00">AjudaComponent</text>
</g>
<!-- ProjecteModule -->
<g id="node7" class="node">
<title>ProjecteModule</title>
<polygon fill="#8dd3c7" stroke="black" points="484.92,-187 481.92,-191 460.92,-191 457.92,-187 379.08,-187 379.08,-151 484.92,-151 484.92,-187"/>
<text text-anchor="middle" x="432" y="-164.8" font-family="Times,serif" font-size="14.00">ProjecteModule</text>
</g>
<!-- AjudaComponent&#45;&gt;ProjecteModule -->
<g id="edge1" class="edge">
<title>AjudaComponent&#45;&gt;ProjecteModule</title>
<path fill="none" stroke="black" d="M871.67,-122.22C871.67,-140.83 871.67,-167 871.67,-167 871.67,-167 495.03,-167 495.03,-167"/>
<polygon fill="black" stroke="black" points="495.03,-163.5 485.03,-167 495.03,-170.5 495.03,-163.5"/>
</g>
<!-- ClassificacioComponent -->
<g id="node2" class="node">
<title>ClassificacioComponent</title>
<polygon fill="#ffffb3" stroke="black" points="774.64,-122 621.36,-122 621.36,-86 774.64,-86 774.64,-122"/>
<text text-anchor="middle" x="698" y="-99.8" font-family="Times,serif" font-size="14.00">ClassificacioComponent</text>
</g>
<!-- ClassificacioComponent&#45;&gt;ProjecteModule -->
<g id="edge2" class="edge">
<title>ClassificacioComponent&#45;&gt;ProjecteModule</title>
<path fill="none" stroke="black" d="M724.02,-122.03C724.02,-139.06 724.02,-162 724.02,-162 724.02,-162 494.88,-162 494.88,-162"/>
<polygon fill="black" stroke="black" points="494.88,-158.5 484.88,-162 494.88,-165.5 494.88,-158.5"/>
</g>
<!-- JocComponent -->
<g id="node3" class="node">
<title>JocComponent</title>
<polygon fill="#ffffb3" stroke="black" points="602.99,-122 503.01,-122 503.01,-86 602.99,-86 602.99,-122"/>
<text text-anchor="middle" x="553" y="-99.8" font-family="Times,serif" font-size="14.00">JocComponent</text>
</g>
<!-- JocComponent&#45;&gt;ProjecteModule -->
<g id="edge3" class="edge">
<title>JocComponent&#45;&gt;ProjecteModule</title>
<path fill="none" stroke="black" d="M569.67,-122.24C569.67,-137.57 569.67,-157 569.67,-157 569.67,-157 494.83,-157 494.83,-157"/>
<polygon fill="black" stroke="black" points="494.83,-153.5 484.83,-157 494.83,-160.5 494.83,-153.5"/>
</g>
<!-- LoginComponent -->
<g id="node4" class="node">
<title>LoginComponent</title>
<polygon fill="#ffffb3" stroke="black" points="485.28,-122 370.72,-122 370.72,-86 485.28,-86 485.28,-122"/>
<text text-anchor="middle" x="428" y="-99.8" font-family="Times,serif" font-size="14.00">LoginComponent</text>
</g>
<!-- LoginComponent&#45;&gt;ProjecteModule -->
<g id="edge4" class="edge">
<title>LoginComponent&#45;&gt;ProjecteModule</title>
<path fill="none" stroke="black" d="M432,-122.11C432,-122.11 432,-140.99 432,-140.99"/>
<polygon fill="black" stroke="black" points="428.5,-140.99 432,-150.99 435.5,-140.99 428.5,-140.99"/>
</g>
<!-- PaginaPrincipalComponent -->
<g id="node5" class="node">
<title>PaginaPrincipalComponent</title>
<polygon fill="#ffffb3" stroke="black" points="352.98,-122 183.02,-122 183.02,-86 352.98,-86 352.98,-122"/>
<text text-anchor="middle" x="268" y="-99.8" font-family="Times,serif" font-size="14.00">PaginaPrincipalComponent</text>
</g>
<!-- PaginaPrincipalComponent&#45;&gt;ProjecteModule -->
<g id="edge5" class="edge">
<title>PaginaPrincipalComponent&#45;&gt;ProjecteModule</title>
<path fill="none" stroke="black" d="M292.16,-122.01C292.16,-138.05 292.16,-159 292.16,-159 292.16,-159 369.13,-159 369.13,-159"/>
<polygon fill="black" stroke="black" points="369.13,-162.5 379.13,-159 369.13,-155.5 369.13,-162.5"/>
</g>
<!-- RegistreComponent -->
<g id="node6" class="node">
<title>RegistreComponent</title>
<polygon fill="#ffffb3" stroke="black" points="164.98,-122 37.02,-122 37.02,-86 164.98,-86 164.98,-122"/>
<text text-anchor="middle" x="101" y="-99.8" font-family="Times,serif" font-size="14.00">RegistreComponent</text>
</g>
<!-- RegistreComponent&#45;&gt;ProjecteModule -->
<g id="edge6" class="edge">
<title>RegistreComponent&#45;&gt;ProjecteModule</title>
<path fill="none" stroke="black" d="M160.37,-122.27C160.37,-140.56 160.37,-166 160.37,-166 160.37,-166 368.98,-166 368.98,-166"/>
<polygon fill="black" stroke="black" points="368.98,-169.5 378.98,-166 368.98,-162.5 368.98,-169.5"/>
</g>
<!-- AjudaComponent  -->
<g id="node8" class="node">
<title>AjudaComponent </title>
<polygon fill="#fb8072" stroke="black" points="916.54,-252 797.46,-252 797.46,-216 916.54,-216 916.54,-252"/>
<text text-anchor="middle" x="857" y="-229.8" font-family="Times,serif" font-size="14.00">AjudaComponent </text>
</g>
<!-- ProjecteModule&#45;&gt;AjudaComponent  -->
<g id="edge7" class="edge">
<title>ProjecteModule&#45;&gt;AjudaComponent </title>
<path fill="none" stroke="black" stroke-dasharray="5,2" d="M485.04,-172C594.36,-172 834.58,-172 834.58,-172 834.58,-172 834.58,-205.73 834.58,-205.73"/>
<polygon fill="black" stroke="black" points="831.08,-205.73 834.58,-215.73 838.08,-205.73 831.08,-205.73"/>
</g>
<!-- ClassificacioComponent  -->
<g id="node9" class="node">
<title>ClassificacioComponent </title>
<polygon fill="#fb8072" stroke="black" points="779.64,-252 622.36,-252 622.36,-216 779.64,-216 779.64,-252"/>
<text text-anchor="middle" x="701" y="-229.8" font-family="Times,serif" font-size="14.00">ClassificacioComponent </text>
</g>
<!-- ProjecteModule&#45;&gt;ClassificacioComponent  -->
<g id="edge8" class="edge">
<title>ProjecteModule&#45;&gt;ClassificacioComponent </title>
<path fill="none" stroke="black" stroke-dasharray="5,2" d="M484.94,-177C555.95,-177 673.23,-177 673.23,-177 673.23,-177 673.23,-205.96 673.23,-205.96"/>
<polygon fill="black" stroke="black" points="669.73,-205.96 673.23,-215.96 676.73,-205.96 669.73,-205.96"/>
</g>
<!-- JocComponent  -->
<g id="node10" class="node">
<title>JocComponent </title>
<polygon fill="#fb8072" stroke="black" points="604.99,-252 501.01,-252 501.01,-216 604.99,-216 604.99,-252"/>
<text text-anchor="middle" x="553" y="-229.8" font-family="Times,serif" font-size="14.00">JocComponent </text>
</g>
<!-- ProjecteModule&#45;&gt;JocComponent  -->
<g id="edge9" class="edge">
<title>ProjecteModule&#45;&gt;JocComponent </title>
<path fill="none" stroke="black" stroke-dasharray="5,2" d="M484.78,-182C510.66,-182 536.33,-182 536.33,-182 536.33,-182 536.33,-205.81 536.33,-205.81"/>
<polygon fill="black" stroke="black" points="532.83,-205.81 536.33,-215.81 539.83,-205.81 532.83,-205.81"/>
</g>
<!-- LoginComponent  -->
<g id="node11" class="node">
<title>LoginComponent </title>
<polygon fill="#fb8072" stroke="black" points="483.28,-252 364.72,-252 364.72,-216 483.28,-216 483.28,-252"/>
<text text-anchor="middle" x="424" y="-229.8" font-family="Times,serif" font-size="14.00">LoginComponent </text>
</g>
<!-- ProjecteModule&#45;&gt;LoginComponent  -->
<g id="edge10" class="edge">
<title>ProjecteModule&#45;&gt;LoginComponent </title>
<path fill="none" stroke="black" stroke-dasharray="5,2" d="M431.21,-187.11C431.21,-187.11 431.21,-205.99 431.21,-205.99"/>
<polygon fill="black" stroke="black" points="427.71,-205.99 431.21,-215.99 434.71,-205.99 427.71,-205.99"/>
</g>
<!-- PaginaPrincipalComponent  -->
<g id="node12" class="node">
<title>PaginaPrincipalComponent </title>
<polygon fill="#fb8072" stroke="black" points="346.98,-252 173.02,-252 173.02,-216 346.98,-216 346.98,-252"/>
<text text-anchor="middle" x="260" y="-229.8" font-family="Times,serif" font-size="14.00">PaginaPrincipalComponent </text>
</g>
<!-- ProjecteModule&#45;&gt;PaginaPrincipalComponent  -->
<g id="edge11" class="edge">
<title>ProjecteModule&#45;&gt;PaginaPrincipalComponent </title>
<path fill="none" stroke="black" stroke-dasharray="5,2" d="M379.13,-180C321.56,-180 237.59,-180 237.59,-180 237.59,-180 237.59,-205.72 237.59,-205.72"/>
<polygon fill="black" stroke="black" points="234.09,-205.72 237.59,-215.72 241.09,-205.72 234.09,-205.72"/>
</g>
<!-- RegistreComponent  -->
<g id="node13" class="node">
<title>RegistreComponent </title>
<polygon fill="#fb8072" stroke="black" points="155.99,-252 24.01,-252 24.01,-216 155.99,-216 155.99,-252"/>
<text text-anchor="middle" x="90" y="-229.8" font-family="Times,serif" font-size="14.00">RegistreComponent </text>
</g>
<!-- ProjecteModule&#45;&gt;RegistreComponent  -->
<g id="edge12" class="edge">
<title>ProjecteModule&#45;&gt;RegistreComponent </title>
<path fill="none" stroke="black" stroke-dasharray="5,2" d="M379.19,-173C284.67,-173 96.38,-173 96.38,-173 96.38,-173 96.38,-205.7 96.38,-205.7"/>
<polygon fill="black" stroke="black" points="92.88,-205.7 96.38,-215.7 99.88,-205.7 92.88,-205.7"/>
</g>
</g>
</svg>
