<?xml version="1.0" encoding="UTF-8" standalone="no"?>
<!-- Created with Inkscape (http://www.inkscape.org/) -->

<svg
   width="210mm"
   height="297mm"
   viewBox="0 0 210 297"
   version="1.1"
   id="svg1"
   inkscape:version="1.3.2 (091e20e, 2023-11-25, custom)"
   sodipodi:docname="cub a triangle.svg"
   inkscape:export-filename="Per animar\cub 18.png"
   inkscape:export-xdpi="96"
   inkscape:export-ydpi="96"
   xmlns:inkscape="http://www.inkscape.org/namespaces/inkscape"
   xmlns:sodipodi="http://sodipodi.sourceforge.net/DTD/sodipodi-0.dtd"
   xmlns="http://www.w3.org/2000/svg"
   xmlns:svg="http://www.w3.org/2000/svg">
  <sodipodi:namedview
     id="namedview1"
     pagecolor="#505050"
     bordercolor="#eeeeee"
     borderopacity="1"
     inkscape:showpageshadow="0"
     inkscape:pageopacity="0"
     inkscape:pagecheckerboard="0"
     inkscape:deskcolor="#505050"
     inkscape:document-units="mm"
     inkscape:zoom="0.34583057"
     inkscape:cx="-1413.9872"
     inkscape:cy="542.17301"
     inkscape:window-width="1366"
     inkscape:window-height="745"
     inkscape:window-x="-8"
     inkscape:window-y="-8"
     inkscape:window-maximized="1"
     inkscape:current-layer="layer1" />
  <defs
     id="defs1" />
  <g
     inkscape:groupmode="layer"
     id="layer20"
     inkscape:label="Cub 18"
     style="display:inline">
    <path
       id="path16"
       style="display:inline;fill:#000000;fill-opacity:1;stroke-width:0.264583"
       inkscape:label="rect19"
       d="m -338.60913,33.653376 -7.16622,256.371674 c -0.0851,3.04254 6.25665,-255.660984 6.25665,-255.660984 l 146.30398,259.950104 h -318.26757 z"
       sodipodi:nodetypes="cscccc" />
  </g>
  <g
     inkscape:groupmode="layer"
     id="layer19"
     inkscape:label="Cub 17"
     style="display:none">
    <path
       id="path14"
       style="display:inline;fill:#030920;fill-opacity:1;stroke-width:0.264583"
       inkscape:label="rect17"
       d="m -343.19953,47.42457 c 0,0 -14.78233,242.26988 -2.57582,242.60048 12.20651,0.3306 11.61212,-245.715121 11.61212,-245.715121 l 140.94851,250.004241 h -318.26757 z"
       sodipodi:nodetypes="czcccc"
       sodipodi:insensitive="true" />
  </g>
  <g
     inkscape:groupmode="layer"
     id="layer18"
     inkscape:label="Cub 16"
     style="display:none">
    <path
       id="path13"
       style="display:inline;fill:#05103a;fill-opacity:1;stroke-width:0.264583"
       inkscape:label="rect16"
       d="m -364.62139,57.370433 c 0,0 -7.89673,230.793887 18.84604,232.654617 26.74277,1.86073 28.44358,-235.004192 28.44358,-235.004192 l 124.11705,239.293312 h -318.26757 z"
       sodipodi:nodetypes="czcccc"
       sodipodi:insensitive="true" />
  </g>
  <g
     inkscape:groupmode="layer"
     id="layer17"
     inkscape:label="Cub 15"
     style="display:none">
    <path
       id="path12"
       style="display:inline;fill:#071856;fill-opacity:1;stroke-width:0.264583"
       inkscape:label="rect15"
       d="m -389.10351,68.081362 c 0,0 -1.01114,220.848028 43.32816,221.943688 44.3393,1.09566 55.2209,-225.823396 55.2209,-225.823396 l 97.33973,230.112516 h -318.26757 z"
       sodipodi:nodetypes="czcccc"
       sodipodi:insensitive="true" />
  </g>
  <g
     inkscape:groupmode="layer"
     id="layer16"
     inkscape:label="Cub 14"
     style="display:none">
    <path
       id="path11"
       style="display:inline;fill:#0a2078;fill-opacity:1;stroke-width:0.264583"
       inkscape:label="rect14"
       d="m -418.17603,80.322424 c 0,0 15.05525,208.606966 72.40068,209.702626 57.34543,1.09566 83.52836,-218.172732 83.52836,-218.172732 l 69.03227,222.461852 h -318.26757 z"
       sodipodi:nodetypes="czcccc"
       sodipodi:insensitive="true" />
  </g>
  <g
     inkscape:groupmode="layer"
     id="layer15"
     inkscape:label="Cub 13"
     style="display:none">
    <path
       id="path10"
       style="display:inline;fill:#0e2a9c;fill-opacity:1;stroke-width:0.264583"
       inkscape:label="rect13"
       d="m -452.60402,94.093618 c 0,0 38.80296,177.773782 108.3588,178.334902 73.28901,0.59124 117.19128,-186.039941 117.19128,-186.039941 l 33.83922,207.925591 h -318.26757 z"
       sodipodi:nodetypes="cacccc"
       sodipodi:insensitive="true" />
  </g>
  <g
     inkscape:groupmode="layer"
     id="layer14"
     inkscape:label="Cub 12"
     style="display:none">
    <path
       id="path9"
       style="display:inline;fill:#153bd9;fill-opacity:1;stroke-width:0.264583"
       inkscape:label="rect12"
       d="m -492.38747,114.75041 c 0,0 83.95732,122.07839 148.90732,126.31039 66.69682,4.34581 168.45072,-108.76824 168.45072,-108.76824 l -18.18529,162.02161 h -318.26757 z"
       sodipodi:nodetypes="cacccc"
       sodipodi:insensitive="true" />
  </g>
  <g
     inkscape:groupmode="layer"
     id="layer13"
     inkscape:label="Cub 11"
     style="display:none">
    <path
       id="path8"
       style="display:inline;fill:#155fd9;fill-opacity:1;stroke-width:0.264583"
       inkscape:label="rect11"
       d="m -542.11678,169.83519 c 0,0 129.33288,56.47484 197.87156,55.92428 68.47275,-0.55002 196.75818,-59.03892 196.75818,-59.03892 l -45.72768,127.59362 h -318.26757 z"
       sodipodi:nodetypes="cacccc"
       sodipodi:insensitive="true" />
  </g>
  <g
     inkscape:groupmode="layer"
     id="layer12"
     inkscape:label="Cub 10"
     style="display:none">
    <path
       id="path7"
       style="display:inline;fill:#1576d9;fill-opacity:1;stroke-width:0.264583"
       inkscape:label="rect10"
       d="m -561.24344,195.84745 c 0,0 144.60434,10.0731 216.99822,9.25523 71.08813,-0.80312 212.82457,-13.90001 212.82457,-13.90001 l -61.79407,103.1115 h -318.26757 z"
       sodipodi:nodetypes="cacccc"
       sodipodi:insensitive="true" />
  </g>
  <g
     inkscape:groupmode="layer"
     id="layer11"
     inkscape:label="Cub 9"
     style="display:none">
    <path
       id="path6"
       style="display:inline;fill:#1599d9;fill-opacity:1;stroke-width:0.264583"
       inkscape:label="rect9"
       d="m -570.42424,206.55838 c 0,0 150.16942,-28.71897 226.17902,-28.99809 71.97011,-0.26428 214.3547,25.88344 214.3547,25.88344 l -63.3242,90.87044 h -318.26757 z"
       sodipodi:nodetypes="cacccc"
       sodipodi:insensitive="true" />
  </g>
  <g
     inkscape:groupmode="layer"
     id="layer10"
     inkscape:label="Cub 8"
     style="display:none">
    <path
       id="path5"
       style="display:inline;fill:#15b8d9;fill-opacity:1;stroke-width:0.264583"
       inkscape:label="rect8"
       d="m -571.95437,215.73918 c 0,0 147.05585,-86.03048 228.47422,-86.37807 75.87199,-0.32392 213.58963,78.67302 213.58963,78.67302 l -63.3242,86.28004 h -318.26757 z"
       sodipodi:nodetypes="cacccc"
       sodipodi:insensitive="true" />
  </g>
  <g
     inkscape:groupmode="layer"
     id="layer9"
     inkscape:label="Cub 7"
     style="display:none">
    <path
       id="path4"
       style="display:inline;fill:#15d99d;fill-opacity:1;stroke-width:0.264583"
       inkscape:label="rect7"
       d="m -572.71944,202.73305 c 0,0 145.1316,-104.215047 229.23929,-105.504731 77.03432,-1.181224 212.82456,90.149021 212.82456,90.149021 l -62.55913,106.93683 h -318.26757 z"
       sodipodi:nodetypes="cacccc"
       sodipodi:insensitive="true" />
  </g>
  <g
     inkscape:groupmode="layer"
     id="layer8"
     inkscape:label="Cub 6"
     style="display:none">
    <path
       id="path3"
       style="display:inline;fill:#15d960;fill-opacity:1;stroke-width:0.264583"
       inkscape:label="rect6"
       d="m -571.18931,175.19066 c 0,0 142.66099,-108.015354 226.17903,-107.799929 79.06477,0.203939 213.58962,103.155149 213.58962,103.155149 l -61.79406,123.76829 h -318.26757 z"
       sodipodi:nodetypes="cacccc"
       sodipodi:insensitive="true" />
  </g>
  <g
     inkscape:groupmode="layer"
     id="layer7"
     inkscape:label="Cub 5"
     style="display:none">
    <path
       id="path2"
       style="display:inline;fill:#15d91a;fill-opacity:1;stroke-width:0.264583"
       inkscape:label="rect5"
       d="m -563.53865,135.40721 c 0,0 140.01636,-88.673744 218.52837,-87.908204 76.80497,0.748896 212.05949,90.149024 212.05949,90.149024 l -60.26393,156.66614 h -318.26757 z"
       sodipodi:nodetypes="cacccc"
       sodipodi:insensitive="true" />
  </g>
  <g
     inkscape:groupmode="layer"
     id="layer6"
     inkscape:label="Cub 4"
     style="display:none">
    <path
       id="path1"
       style="display:inline;fill:#5fd915;fill-opacity:1;stroke-width:0.264583"
       inkscape:label="rect4"
       d="m -555.88799,105.56962 c 0,0 133.52266,-84.887935 208.58251,-84.847936 74.14073,0.03951 205.93896,84.028496 205.93896,84.028496 l -51.8482,189.56399 h -318.26757 z"
       sodipodi:nodetypes="cacccc"
       sodipodi:insensitive="true" />
  </g>
  <g
     inkscape:groupmode="layer"
     id="layer5"
     inkscape:label="Cub 3"
     style="display:none">
    <path
       id="rect1-8-3"
       style="display:inline;fill:#bfd915;fill-opacity:1;stroke-width:0.264583"
       inkscape:label="rect3"
       d="m -542.1168,54.310174 c 0,0 128.38462,-41.403542 194.81132,-42.00422 64.50173,-0.583271 189.87257,37.35945 189.87257,37.35945 l -35.78181,244.648766 h -318.26757 z"
       sodipodi:nodetypes="cacccc"
       sodipodi:insensitive="true" />
  </g>
  <g
     inkscape:groupmode="layer"
     id="layer3"
     inkscape:label="Cub 2"
     style="display:none">
    <path
       id="rect1-8"
       style="display:inline;fill:#d9bc15;fill-opacity:1;stroke-width:0.264583"
       inkscape:label="rect2"
       d="M -521.21967,4.1774216 -182.39472,-4.4783162 -193.21439,294.31385 H -511.48196 Z"
       sodipodi:nodetypes="ccccc"
       sodipodi:insensitive="true" />
  </g>
  <g
     inkscape:label="Cub"
     inkscape:groupmode="layer"
     id="layer1"
     style="display:none">
    <rect
       style="display:inline;fill:#d98a15;fill-opacity:1;stroke-width:0.264583"
       id="rect1"
       width="318.26758"
       height="318.26758"
       x="-511.0643"
       y="-24.482122"
       sodipodi:insensitive="true" />
  </g>
</svg>
